<svg width="80" height="26" viewBox="0 0 80 26" fill="none" xmlns="http://www.w3.org/2000/svg">
<path d="M61.8973 15.5036C61.1859 16.2538 60.1635 16.726 59.0257 16.726C56.8797 16.726 55.1388 15.0562 55.1388 12.9978C55.1388 10.9394 56.8797 9.2696 59.0257 9.2696C59.8643 9.2696 60.6394 9.52718 61.2754 9.96101L63.3932 7.10272C62.1588 6.26217 60.6559 5.76056 59.0257 5.76056C54.8585 5.76056 51.4805 9.00071 51.4805 12.9978C51.4805 16.9949 54.8585 20.2351 59.0257 20.2351C60.9527 20.2351 62.7053 19.5346 64.041 18.3958L61.8973 15.5036Z" fill="white"/>
<path d="M44.7411 6.1901L42.6304 9.04161C44.7223 9.24497 46.3548 10.9396 46.3548 13.0003C46.3548 15.1988 44.4961 16.9793 42.2064 16.9793V9.01902V5.76305V2.6178H38.6917V5.76079C34.5245 5.76079 31.1465 9.00094 31.1465 12.998C31.1465 16.9951 34.5245 20.2353 38.6917 20.2353V23.4935H42.2064V20.2353C46.3736 20.2353 49.7517 16.9951 49.7517 12.998C49.7517 9.8573 47.6598 7.18881 44.7411 6.1901ZM34.541 12.998C34.541 10.7995 36.3997 9.01902 38.6894 9.01902V16.977C36.3997 16.9793 34.541 15.1965 34.541 12.998Z" fill="white"/>
<path d="M70.0468 19.945H66.207V6.04895H70.0468V19.945ZM70.5344 12.997L75.7287 6.04895H79.7239L74.4873 12.8976L79.9995 19.945H75.9478L70.5344 12.997Z" fill="white"/>
<path d="M10.4258 7.79805H25.5493C24.044 4.55564 21.1771 2.02497 17.6436 0.874878L10.4258 7.79805Z" fill="#E84E0E"/>
<path d="M26.2988 9.83552H7.86562C7.43453 9.83552 7.0482 9.58698 6.8833 9.20512C6.71841 8.82326 6.81028 8.38491 7.11416 8.09343L15.2224 0.316169C14.6123 0.234827 13.988 0.189636 13.3544 0.189636C5.97872 0.189636 0 5.9243 0 12.9988C0 13.9456 0.110717 14.8675 0.313306 15.7577H18.9444C19.3755 15.7577 19.7618 16.0063 19.9267 16.3881C20.0916 16.77 19.9997 17.2083 19.6959 17.4998L11.206 25.6431C11.9056 25.7516 12.6217 25.8103 13.352 25.8103C20.7277 25.8103 26.7064 20.0757 26.7064 13.0011C26.7111 11.9075 26.5674 10.8478 26.2988 9.83552Z" fill="#E84E0E"/>
<path d="M16.3915 17.799H0.985352C2.40347 21.1612 5.26327 23.8139 8.83213 25.0498L16.3915 17.799Z" fill="#E84E0E"/>
</svg>
