<svg width="28" height="28" viewBox="0 0 28 28" fill="none" xmlns="http://www.w3.org/2000/svg">
<path fill-rule="evenodd" clip-rule="evenodd" d="M6.29289 7.70686C5.90237 7.31634 5.90237 6.68317 6.29289 6.29265C6.68342 5.90212 7.31658 5.90212 7.70711 6.29265L14 12.5855L20.2929 6.29265C20.6834 5.90212 21.3166 5.90212 21.7071 6.29265C22.0976 6.68317 22.0976 7.31634 21.7071 7.70686L15.4142 13.9998L21.7071 20.2926C22.0976 20.6832 22.0976 21.3163 21.7071 21.7069C21.3166 22.0974 20.6834 22.0974 20.2929 21.7069L14 15.414L7.70711 21.7069C7.31658 22.0974 6.68342 22.0974 6.29289 21.7069C5.90237 21.3163 5.90237 20.6832 6.29289 20.2926L12.5858 13.9998L6.29289 7.70686Z" fill="white"/>
</svg>
