<svg width="18" height="23" viewBox="0 0 18 23" fill="none" xmlns="http://www.w3.org/2000/svg">
<path d="M11.9996 1.89975V5.49975C11.9996 6.16249 12.5369 6.69975 13.1996 6.69975H16.7996M5.39959 6.69975H7.79959M5.39959 10.2997H12.5996M5.39959 13.8997H12.5996M14.9996 3.69975C14.4655 3.22189 13.9113 2.65513 13.5614 2.28703C13.3286 2.04208 13.007 1.89975 12.669 1.89975H3.59931C2.27383 1.89975 1.19932 2.97426 1.19931 4.29974L1.19922 18.6997C1.19921 20.0252 2.27372 21.0997 3.59921 21.0997L14.3993 21.0997C15.7247 21.0997 16.7992 20.0253 16.7993 18.6998L16.7996 5.97758C16.7996 5.67074 16.6825 5.37578 16.4696 5.15488C16.0758 4.7464 15.4182 4.07427 14.9996 3.69975Z" stroke="currentColor" stroke-width="2" stroke-linecap="round" stroke-linejoin="round"/>
</svg>
