<svg width="20" height="20" viewBox="0 0 20 20" fill="none" xmlns="http://www.w3.org/2000/svg">
<path fill-rule="evenodd" clip-rule="evenodd" d="M11.004 4C11.004 3.44772 10.5563 3 10.004 3C9.4517 3 9.00399 3.44772 9.00399 4V9H3.99976C3.44747 9 2.99976 9.44771 2.99976 10C2.99976 10.5523 3.44747 11 3.99976 11H9.00399V16.0003C9.00399 16.5526 9.4517 17.0003 10.004 17.0003C10.5563 17.0003 11.004 16.5526 11.004 16.0003V11H16.0001C16.5524 11 17.0001 10.5523 17.0001 10C17.0001 9.44772 16.5524 9 16.0001 9H11.004V4Z" fill="white"/>
</svg>
