<svg width="20" height="20" viewBox="0 0 20 20" fill="none" xmlns="http://www.w3.org/2000/svg">
<path d="M10 18C14.4183 18 18 14.4183 18 10C18 5.58172 14.4183 2 10 2C5.58172 2 2 5.58172 2 10C2 14.4183 5.58172 18 10 18Z" stroke="white" stroke-width="2" stroke-linecap="round" stroke-linejoin="round"/>
<path d="M7.96484 7.90014C8.12941 7.43233 8.45423 7.03785 8.88177 6.78658C9.30931 6.53531 9.81198 6.44346 10.3008 6.5273C10.7895 6.61114 11.2329 6.86525 11.5522 7.24464C11.8716 7.62402 12.0464 8.10419 12.0457 8.60011C12.0457 10 9.94575 10.7 9.94575 10.7" stroke="white" stroke-width="2" stroke-linecap="round" stroke-linejoin="round"/>
<path d="M10 13.4995H10.007" stroke="white" stroke-width="2" stroke-linecap="round" stroke-linejoin="round"/>
</svg>
