<svg width="56" height="56" viewBox="0 0 56 56" fill="none" xmlns="http://www.w3.org/2000/svg">
<path d="M24.4195 42.4051C26.7833 42.4051 29.1239 41.9396 31.3078 41.035C33.4916 40.1304 35.4759 38.8045 37.1474 37.1331C38.8189 35.4616 40.1447 33.4773 41.0493 31.2934C41.9539 29.1096 42.4195 26.7689 42.4195 24.4051C42.4195 22.0413 41.9539 19.7007 41.0493 17.5168C40.1447 15.333 38.8189 13.3487 37.1474 11.6772C35.4759 10.0058 33.4916 8.67989 31.3078 7.7753C29.1239 6.87072 26.7833 6.40514 24.4195 6.40514C19.6456 6.40514 15.0672 8.30156 11.6916 11.6772C8.3159 15.0529 6.41948 19.6312 6.41948 24.4051C6.41948 29.179 8.3159 33.7574 11.6916 37.1331C15.0672 40.5087 19.6456 42.4051 24.4195 42.4051ZM43.3795 39.1231L54.1195 49.8631C54.4058 50.1401 54.6341 50.4713 54.7911 50.8374C54.948 51.2035 55.0305 51.5972 55.0337 51.9956C55.0369 52.3939 54.9607 52.7889 54.8096 53.1575C54.6585 53.526 54.4355 53.8608 54.1536 54.1423C53.8717 54.4238 53.5366 54.6463 53.1678 54.7969C52.799 54.9475 52.4039 55.0231 52.0056 55.0194C51.6073 55.0156 51.2137 54.9326 50.8478 54.7751C50.4819 54.6176 50.151 54.3889 49.8745 54.1021L39.1345 43.3621C34.3119 47.1057 28.2439 48.8706 22.1657 48.2977C16.0876 47.7248 10.4563 44.8571 6.41813 40.2783C2.37997 35.6996 0.238533 29.754 0.429756 23.6519C0.620979 17.5498 3.13049 11.75 7.44742 7.43307C11.7643 3.11614 17.5642 0.606636 23.6662 0.415413C29.7683 0.224189 35.7139 2.36563 40.2927 6.40379C44.8714 10.442 47.7391 16.0733 48.3121 22.1514C48.885 28.2295 47.12 34.2975 43.3765 39.1201L43.3795 39.1231ZM27.4195 21.4051H33.4195C34.2151 21.4051 34.9782 21.7212 35.5408 22.2838C36.1034 22.8464 36.4195 23.6095 36.4195 24.4051C36.4195 25.2008 36.1034 25.9638 35.5408 26.5265C34.9782 27.0891 34.2151 27.4051 33.4195 27.4051H27.4195V33.4051C27.4195 34.2008 27.1034 34.9638 26.5408 35.5265C25.9782 36.0891 25.2151 36.4051 24.4195 36.4051C23.6238 36.4051 22.8608 36.0891 22.2982 35.5265C21.7355 34.9638 21.4195 34.2008 21.4195 33.4051V27.4051H15.4195C14.6238 27.4051 13.8608 27.0891 13.2982 26.5265C12.7355 25.9638 12.4195 25.2008 12.4195 24.4051C12.4195 23.6095 12.7355 22.8464 13.2982 22.2838C13.8608 21.7212 14.6238 21.4051 15.4195 21.4051H21.4195V15.4051C21.4195 14.6095 21.7355 13.8464 22.2982 13.2838C22.8608 12.7212 23.6238 12.4051 24.4195 12.4051C25.2151 12.4051 25.9782 12.7212 26.5408 13.2838C27.1034 13.8464 27.4195 14.6095 27.4195 15.4051V21.4051Z" fill="white" fill-opacity="0.8"/>
</svg>
