<svg width="24" height="24" viewBox="0 0 24 24" fill="none" xmlns="http://www.w3.org/2000/svg">
<path d="M10.8204 12.525C10.6004 12.515 10.3804 12.505 10.1504 12.505C7.73039 12.505 5.47039 13.175 3.54039 14.325C2.66039 14.845 2.15039 15.825 2.15039 16.855V18.505C2.15039 19.055 2.60039 19.505 3.15039 19.505H11.4104C10.6204 18.375 10.1504 16.995 10.1504 15.505C10.1504 14.435 10.4004 13.435 10.8204 12.525Z" fill="currentColor"/>
<path d="M10.1504 11.505C12.3595 11.505 14.1504 9.71414 14.1504 7.505C14.1504 5.29587 12.3595 3.505 10.1504 3.505C7.94125 3.505 6.15039 5.29587 6.15039 7.505C6.15039 9.71414 7.94125 11.505 10.1504 11.505Z" fill="currentColor"/>
<path d="M20.9004 15.505C20.9004 15.285 20.8704 15.085 20.8404 14.875L21.6804 14.145C21.8604 13.985 21.9004 13.725 21.7804 13.515L21.1904 12.495C21.0704 12.285 20.8204 12.195 20.6004 12.275L19.5404 12.635C19.2204 12.365 18.8604 12.155 18.4604 12.005L18.2404 10.915C18.1904 10.685 17.9904 10.515 17.7504 10.515H16.5704C16.3304 10.515 16.1304 10.685 16.0804 10.915L15.8604 12.005C15.4604 12.155 15.1004 12.365 14.7804 12.635L13.7204 12.275C13.4904 12.195 13.2504 12.295 13.1304 12.495L12.5404 13.515C12.4204 13.725 12.4604 13.985 12.6404 14.145L13.4804 14.875C13.4504 15.085 13.4204 15.285 13.4204 15.505C13.4204 15.725 13.4504 15.925 13.4804 16.135L12.6404 16.865C12.4604 17.025 12.4204 17.285 12.5404 17.495L13.1304 18.515C13.2504 18.725 13.5004 18.815 13.7204 18.735L14.7804 18.375C15.1004 18.645 15.4604 18.855 15.8604 19.005L16.0804 20.095C16.1304 20.325 16.3304 20.495 16.5704 20.495H17.7504C17.9904 20.495 18.1904 20.325 18.2404 20.095L18.4604 19.005C18.8604 18.855 19.2204 18.645 19.5404 18.375L20.6004 18.735C20.8304 18.815 21.0704 18.715 21.1904 18.515L21.7804 17.495C21.9004 17.285 21.8604 17.025 21.6804 16.865L20.8404 16.135C20.8704 15.925 20.9004 15.725 20.9004 15.505ZM17.1504 17.505C16.0504 17.505 15.1504 16.605 15.1504 15.505C15.1504 14.405 16.0504 13.505 17.1504 13.505C18.2504 13.505 19.1504 14.405 19.1504 15.505C19.1504 16.605 18.2504 17.505 17.1504 17.505Z" fill="currentColor"/>
</svg>
